<svg width="28" height="30" viewBox="0 0 28 30" fill="none" xmlns="http://www.w3.org/2000/svg">
<g filter="url(#filter0_d_616_469)">
<path d="M23.5308 20.4693L18.8368 15.7762C20.1973 14.1428 20.8757 12.0478 20.7309 9.92691C20.5861 7.80604 19.6293 5.82265 18.0593 4.38932C16.4894 2.95599 14.4274 2.18308 12.3021 2.23138C10.1769 2.27968 8.15205 3.14547 6.64888 4.64864C5.14571 6.15181 4.27993 8.17663 4.23163 10.3019C4.18333 12.4271 4.95623 14.4892 6.38956 16.0591C7.82289 17.629 9.80629 18.5859 11.9272 18.7307C14.048 18.8755 16.1431 18.1971 17.7765 16.8365L22.4696 21.5306C22.5393 21.6003 22.622 21.6556 22.713 21.6933C22.8041 21.731 22.9017 21.7504 23.0002 21.7504C23.0988 21.7504 23.1963 21.731 23.2874 21.6933C23.3784 21.6556 23.4612 21.6003 23.5308 21.5306C23.6005 21.4609 23.6558 21.3782 23.6935 21.2871C23.7312 21.1961 23.7506 21.0985 23.7506 21C23.7506 20.9014 23.7312 20.8038 23.6935 20.7128C23.6558 20.6218 23.6005 20.539 23.5308 20.4693ZM5.75021 10.5C5.75021 9.16495 6.14609 7.8599 6.88779 6.74987C7.62949 5.63984 8.6837 4.77467 9.9171 4.26378C11.1505 3.75289 12.5077 3.61922 13.8171 3.87967C15.1264 4.14012 16.3292 4.78299 17.2732 5.727C18.2172 6.671 18.8601 7.87374 19.1205 9.18311C19.381 10.4925 19.2473 11.8497 18.7364 13.0831C18.2255 14.3165 17.3603 15.3707 16.2503 16.1124C15.1403 16.8541 13.8352 17.25 12.5002 17.25C10.7106 17.248 8.99488 16.5362 7.72944 15.2708C6.464 14.0053 5.7522 12.2896 5.75021 10.5Z" fill="white"/>
</g>
<defs>
<filter id="filter0_d_616_469" x="-2" y="0" width="32" height="32" filterUnits="userSpaceOnUse" color-interpolation-filters="sRGB">
<feFlood flood-opacity="0" result="BackgroundImageFix"/>
<feColorMatrix in="SourceAlpha" type="matrix" values="0 0 0 0 0 0 0 0 0 0 0 0 0 0 0 0 0 0 127 0" result="hardAlpha"/>
<feOffset dy="4"/>
<feGaussianBlur stdDeviation="2"/>
<feComposite in2="hardAlpha" operator="out"/>
<feColorMatrix type="matrix" values="0 0 0 0 0 0 0 0 0 0 0 0 0 0 0 0 0 0 0.25 0"/>
<feBlend mode="normal" in2="BackgroundImageFix" result="effect1_dropShadow_616_469"/>
<feBlend mode="normal" in="SourceGraphic" in2="effect1_dropShadow_616_469" result="shape"/>
</filter>
</defs>
</svg>
