<svg width="28" height="29" viewBox="0 0 28 29" fill="none" xmlns="http://www.w3.org/2000/svg">
<g filter="url(#filter0_d_616_467)">
<path d="M22.8948 13.334C22.7986 13.2376 22.6779 13.1692 22.5458 13.1362C22.4136 13.1032 22.275 13.1067 22.1448 13.1465C20.7147 13.5789 19.1941 13.6151 17.745 13.2514C16.2959 12.8877 14.9727 12.1377 13.9163 11.0813C12.8598 10.0249 12.1098 8.7016 11.7461 7.25254C11.3824 5.80347 11.4187 4.28288 11.851 2.85279C11.8911 2.72248 11.895 2.5837 11.8621 2.45137C11.8293 2.31903 11.761 2.19816 11.6646 2.10175C11.5681 2.00534 11.4473 1.93703 11.3149 1.90418C11.1826 1.87132 11.0438 1.87517 10.9135 1.91529C8.93635 2.52096 7.20058 3.73478 5.9532 5.38404C4.86233 6.83234 4.19694 8.55614 4.03176 10.3618C3.86658 12.1674 4.20817 13.9833 5.01814 15.6055C5.82812 17.2277 7.07439 18.5919 8.61695 19.5448C10.1595 20.4978 11.9372 21.0017 13.7504 21C15.8657 21.0065 17.9248 20.3188 19.6116 19.0425C21.2609 17.7951 22.4747 16.0593 23.0804 14.0822C23.12 13.9523 23.1237 13.8142 23.091 13.6824C23.0583 13.5507 22.9905 13.4303 22.8948 13.334ZM18.7098 17.8444C17.1212 19.0408 15.1539 19.6232 13.17 19.4843C11.1861 19.3454 9.3192 18.4945 7.91289 17.0884C6.50658 15.6822 5.65556 13.8153 5.51648 11.8314C5.37741 9.84753 5.95964 7.88019 7.15601 6.29154C7.93545 5.26222 8.94313 4.42784 10.0998 3.85404C10.0339 4.31644 10.0007 4.78291 10.0004 5.24998C10.0031 7.835 11.0312 10.3134 12.8591 12.1413C14.687 13.9691 17.1654 14.9972 19.7504 15C20.2184 14.9998 20.6858 14.9666 21.1491 14.9006C20.5748 16.0574 19.7398 17.0651 18.7098 17.8444Z" fill="white"/>
</g>
<defs>
<filter id="filter0_d_616_467" x="-3" y="0" width="32" height="32" filterUnits="userSpaceOnUse" color-interpolation-filters="sRGB">
<feFlood flood-opacity="0" result="BackgroundImageFix"/>
<feColorMatrix in="SourceAlpha" type="matrix" values="0 0 0 0 0 0 0 0 0 0 0 0 0 0 0 0 0 0 127 0" result="hardAlpha"/>
<feOffset dy="4"/>
<feGaussianBlur stdDeviation="2"/>
<feComposite in2="hardAlpha" operator="out"/>
<feColorMatrix type="matrix" values="0 0 0 0 0 0 0 0 0 0 0 0 0 0 0 0 0 0 0.25 0"/>
<feBlend mode="normal" in2="BackgroundImageFix" result="effect1_dropShadow_616_467"/>
<feBlend mode="normal" in="SourceGraphic" in2="effect1_dropShadow_616_467" result="shape"/>
</filter>
</defs>
</svg>
